<svg width="1332" height="1391" xmlns="http://www.w3.org/2000/svg" xmlns:xlink="http://www.w3.org/1999/xlink" xml:space="preserve" overflow="hidden"><defs><filter id="fx0" x="-10%" y="-10%" width="120%" height="120%" filterUnits="userSpaceOnUse" primitiveUnits="userSpaceOnUse"><feComponentTransfer color-interpolation-filters="sRGB"><feFuncR type="discrete" tableValues="0 0"/><feFuncG type="discrete" tableValues="0 0"/><feFuncB type="discrete" tableValues="0 0"/><feFuncA type="linear" slope="0.2" intercept="0"/></feComponentTransfer><feGaussianBlur stdDeviation="7.63889 7.63889"/></filter><clipPath id="clip1"><rect x="1074" y="421" width="1332" height="1391"/></clipPath></defs><g clip-path="url(#clip1)" transform="translate(-1074 -421)"><g filter="url(#fx0)" transform="translate(1073 420)"><g><path d="M502.537 395.108C532.394 425.938 531.606 475.134 500.776 504.991 469.947 534.848 420.751 534.06 390.894 503.23 361.037 472.401 361.825 423.204 392.654 393.347 423.484 363.49 472.68 364.279 502.537 395.108Z" fill="#00B0F0" fill-rule="evenodd"/><path d="M746.246 159.086C807.416 222.249 722.9 403.327 557.474 563.535 392.048 723.744 208.355 802.415 147.185 739.252 86.014 676.089 170.53 495.011 335.956 334.803 501.382 174.595 685.075 95.9235 746.246 159.086Z" stroke="#00B0F0" stroke-width="37.8125" stroke-miterlimit="8" fill="none" fill-rule="evenodd"/><path d="M847.7 563.529C823.584 648.085 624.508 665.432 403.051 602.273 181.593 539.114 21.6155 419.366 45.7307 334.81 69.846 250.253 268.922 232.907 490.38 296.066 711.837 359.225 871.815 478.972 847.7 563.529Z" stroke="#00B0F0" stroke-width="37.8125" stroke-miterlimit="8" fill="none" fill-rule="evenodd"/><path d="M548.169 853.612C462.883 875.005 348.323 711.274 292.291 487.906 236.26 264.539 259.975 66.1205 345.261 44.7267 430.547 23.3329 545.107 187.065 601.139 410.432 657.17 633.8 633.455 832.218 548.169 853.612Z" stroke="#00B0F0" stroke-width="37.8125" stroke-miterlimit="8" fill="none" fill-rule="evenodd"/><path d="M1151.79 391.632 1117.36 501.95C1115.95 506.448 1115.24 511.105 1115.24 515.799 1115.24 536.252 1128.37 554.09 1147.9 560.19 1172.37 567.81 1198.5 554.108 1206.14 529.646L1240.76 418.665 1259.81 436.544C1291.43 466.232 1309.23 506.422 1309.91 549.71 1310.6 593.01 1294.12 633.716 1263.52 664.334 1245.76 682.072 1223.85 695.469 1200.15 703.088 1170.78 712.535 1144.08 728.71 1122.93 749.861L992.221 880.573 1070.76 959.115 1048.63 983.273 814.142 748.786 836.559 724.915 886.516 774.872 939.233 722.174C980.16 681.227 1000.06 625.709 993.832 569.862 988.086 518.411 1007.92 467.223 1046.88 432.937 1069.06 413.456 1096.3 400.643 1125.65 395.877Z" fill="#3C95B4" fill-rule="evenodd"/><path d="M751.111 816.253 986.262 1051.4 964.127 1075.56 881.211 992.646 836.183 1037.67C795.252 1078.62 775.352 1134.14 781.58 1189.99 787.326 1241.44 767.496 1292.62 728.528 1326.91 706.36 1346.39 679.127 1359.2 649.767 1363.97L623.635 1368.22 658.029 1257.9C659.447 1253.34 660.167 1248.67 660.167 1244.02 660.167 1223.59 647.036 1205.77 627.496 1199.68 615.635 1195.98 603.054 1197.12 592.055 1202.89 581.054 1208.65 572.964 1218.36 569.276 1230.21L534.647 1341.19 515.6 1323.31C483.967 1293.61 466.17 1253.41 465.487 1210.12 464.807 1166.84 481.287 1126.14 511.892 1095.54 529.887 1077.54 551.209 1064.49 575.262 1056.76 604.632 1047.31 631.323 1031.14 652.45 1009.99L775.5 886.942 728.688 840.129Z" fill="#3C95B4" fill-rule="evenodd"/><path d="M1035.48 921.057 1149.53 1035.11C1180.9 1066.47 1180.9 1117.51 1149.53 1148.88 1133.85 1164.56 1113.24 1172.4 1092.64 1172.4 1072.04 1172.4 1051.45 1164.56 1035.76 1148.88L926.682 1039.8 951.828 1012.36 1062.05 1122.58C1078.91 1139.45 1106.36 1139.45 1123.23 1122.58 1140.1 1105.71 1140.1 1078.27 1123.23 1061.4L1010.33 948.502 1035.48 921.057Z" fill="#00B0F0" fill-rule="evenodd"/><path d="M729.62 616.457 1053.91 939.533 1027.18 966.357 702.897 643.28Z" fill="#00B0F0" fill-rule="evenodd"/><path d="M641.286 702.199 965.572 1025.28 938.848 1052.1 614.562 729.023Z" fill="#00B0F0" fill-rule="evenodd"/></g></g><path d="M1575.54 815.108C1605.39 845.938 1604.61 895.133 1573.78 924.99 1542.95 954.848 1493.75 954.06 1463.89 923.23 1434.04 892.401 1434.82 843.204 1465.65 813.347 1496.48 783.49 1545.68 784.279 1575.54 815.108Z" fill="#00B0F0" fill-rule="evenodd"/><path d="M1819.25 579.086C1880.42 642.249 1795.9 823.327 1630.47 983.535 1465.05 1143.74 1281.36 1222.42 1220.18 1159.25 1159.01 1096.09 1243.53 915.011 1408.96 754.803 1574.38 594.595 1758.08 515.923 1819.25 579.086Z" stroke="#00B0F0" stroke-width="37.8125" stroke-miterlimit="8" fill="none" fill-rule="evenodd"/><path d="M1920.7 983.529C1896.58 1068.09 1697.51 1085.43 1476.05 1022.27 1254.59 959.114 1094.62 839.366 1118.73 754.81 1142.85 670.253 1341.92 652.907 1563.38 716.066 1784.84 779.225 1944.81 898.972 1920.7 983.529Z" stroke="#00B0F0" stroke-width="37.8125" stroke-miterlimit="8" fill="none" fill-rule="evenodd"/><path d="M1621.17 1273.61C1535.88 1295.01 1421.32 1131.27 1365.29 907.906 1309.26 684.539 1332.98 486.121 1418.26 464.727 1503.55 443.333 1618.11 607.065 1674.14 830.432 1730.17 1053.8 1706.45 1252.22 1621.17 1273.61Z" stroke="#00B0F0" stroke-width="37.8125" stroke-miterlimit="8" fill="none" fill-rule="evenodd"/><path d="M2224.79 811.632 2190.36 921.95C2188.95 926.448 2188.24 931.105 2188.24 935.799 2188.24 956.252 2201.37 974.09 2220.9 980.19 2245.37 987.81 2271.5 974.108 2279.14 949.646L2313.76 838.665 2332.81 856.544C2364.43 886.232 2382.23 926.422 2382.91 969.71 2383.6 1013.01 2367.12 1053.72 2336.52 1084.33 2318.76 1102.07 2296.85 1115.47 2273.15 1123.09 2243.78 1132.53 2217.08 1148.71 2195.93 1169.86L2065.22 1300.57 2143.76 1379.11 2121.63 1403.27 1887.14 1168.79 1909.56 1144.92 1959.52 1194.87 2012.23 1142.17C2053.16 1101.23 2073.06 1045.71 2066.83 989.862 2061.09 938.411 2080.92 887.223 2119.88 852.937 2142.06 833.456 2169.3 820.643 2198.65 815.877Z" fill="#3C95B4" fill-rule="evenodd"/><path d="M1824.11 1236.25 2059.26 1471.4 2037.13 1495.56 1954.21 1412.65 1909.18 1457.67C1868.25 1498.62 1848.35 1554.14 1854.58 1609.99 1860.33 1661.44 1840.5 1712.62 1801.53 1746.91 1779.36 1766.39 1752.13 1779.2 1722.77 1783.97L1696.64 1788.22 1731.03 1677.9C1732.45 1673.34 1733.17 1668.67 1733.17 1664.02 1733.17 1643.59 1720.04 1625.77 1700.5 1619.68 1688.63 1615.98 1676.05 1617.12 1665.05 1622.89 1654.05 1628.65 1645.96 1638.36 1642.28 1650.21L1607.65 1761.19 1588.6 1743.31C1556.97 1713.61 1539.17 1673.41 1538.49 1630.12 1537.81 1586.84 1554.29 1546.14 1584.89 1515.54 1602.89 1497.54 1624.21 1484.49 1648.26 1476.76 1677.63 1467.31 1704.32 1451.14 1725.45 1429.99L1848.5 1306.94 1801.69 1260.13Z" fill="#3C95B4" fill-rule="evenodd"/><path d="M2108.48 1341.06 2222.53 1455.11C2253.9 1486.47 2253.9 1537.51 2222.53 1568.88 2206.85 1584.56 2186.24 1592.4 2165.64 1592.4 2145.04 1592.4 2124.45 1584.56 2108.76 1568.88L1999.68 1459.8 2024.83 1432.36 2135.05 1542.58C2151.91 1559.45 2179.36 1559.45 2196.23 1542.58 2213.1 1525.71 2213.1 1498.27 2196.23 1481.4L2083.33 1368.5 2108.48 1341.06Z" fill="#00B0F0" fill-rule="evenodd"/><path d="M1802.62 1036.46 2126.91 1359.53 2100.18 1386.36 1775.9 1063.28Z" fill="#00B0F0" fill-rule="evenodd"/><path d="M1714.29 1122.2 2038.57 1445.28 2011.85 1472.1 1687.56 1149.02Z" fill="#00B0F0" fill-rule="evenodd"/></g></svg>